<svg height="100%" width="100%" xmlns="http://www.w3.org/2000/svg" viewBox="0 0 100 100">
  <path d="M48.938 17.792l.293.104h.062c.377-.167.88-.377 1.487-.628a144.033 144.033 0 015.005-1.885c4.125-1.403 9.716-2.995 16.04-3.728 3.099-.376 5.716-.607 7.915-.732a80.023 80.023 0 015.36-.188c1.089 0 1.947.042 2.555.062.523.021.879.084 1.089.084 1.319.083 2.513.628 3.371 1.487a5.084 5.084 0 011.445 3.518v3.874h2.471c1.466 0 2.659 1.193 2.659 2.596V88.19c0 1.445-1.193 2.597-2.659 2.597h-37.67c-.377.126-.754.251-1.131.355-3.015.984-5.025 1.76-5.968 2.178a6.38 6.38 0 00-.565.23l-.125.042c-.377.146-.775.23-1.152.23h-.397a2.82 2.82 0 01-1.193-.272h-.042a6.76 6.76 0 00-.586-.23c-.942-.418-2.974-1.214-5.968-2.178-.377-.104-.754-.229-1.152-.355l1.173-4.021c.439.146.858.272 1.256.397 3.204 1.026 5.36 1.864 6.366 2.283l.083.041.084.042.125.042.063.021.042-.021.125-.042.083-.042.084-.041c1.026-.419 3.183-1.257 6.386-2.283 3.204-1.025 7.455-2.24 12.647-3.392 6.031-1.299 10.848-2.011 14.239-2.346 3.371-.377 5.34-.419 5.654-.419h.125a.817.817 0 00.733-.816V15.887a.694.694 0 00-.23-.544c-.146-.167-.335-.23-.565-.272h-.209c-.062 0-.355-.042-.9-.084a60.383 60.383 0 00-2.345-.042c-1.298 0-2.974.042-5.089.167-2.136.147-4.669.356-7.705.733-5.926.67-11.224 2.157-15.14 3.518-.397.125-.774.251-1.151.398-1.235.46-2.304.858-3.184 1.235-.795.314-1.424.565-1.926.775v58.736c0 .921-.754 1.696-1.675 1.696s-1.675-.775-1.675-1.696V21.771c-.398-.167-.879-.377-1.466-.607a90.595 90.595 0 00-3.644-1.403 19.44 19.44 0 00-1.151-.398c-.482-.167-1.005-.335-1.529-.523l1.235-4c.586.188 1.131.356 1.675.544 2.891 1.005 5.09 1.927 6.262 2.408z"/><path d="M29.863 83.773a148.622 148.622 0 0111.391 2.994l-1.173 4.021H1.804c-1.466 0-2.66-1.151-2.66-2.597V22.357c0-1.403 1.194-2.596 2.66-2.596h3.099v-3.874c0-2.68 2.136-4.9 4.816-5.004.188 0 .544-.063 1.068-.084.628-.021 1.466-.062 2.576-.062 1.382 0 3.141.042 5.36.188 2.178.125 4.816.356 7.916.732 5.507.628 10.449 1.927 14.364 3.183l-1.235 4c-3.727-1.194-8.417-2.408-13.611-2.995a139.762 139.762 0 00-7.706-.733 86.763 86.763 0 00-5.088-.167c-1.026 0-1.822.021-2.366.084-.523 0-.817.042-.9.042h-.19c-.461.042-.817.377-.817.816v64.306c0 .23.105.419.251.586l.251.168.251.062h.127c.293 0 2.261.042 5.653.419 3.372.335 8.209 1.047 14.24 2.345z"/>
</svg>
